<?xml version="1.0" encoding="UTF-8"?>
<svg id="_图层_2" data-name="图层 2" xmlns="http://www.w3.org/2000/svg" xmlns:xlink="http://www.w3.org/1999/xlink" viewBox="0 0 138.39 101.16">
  <defs>
    <style>
      .cls-1 {
        fill: #c9c9c9;
      }

      .cls-2 {
        fill: #e5e5e6;
      }

      .cls-3 {
        fill: url(#linear-gradient-2);
      }

      .cls-4 {
        fill: #e3e3e4;
      }

      .cls-5 {
        fill: #d5d5d5;
      }

      .cls-6 {
        fill: url(#linear-gradient-3);
      }

      .cls-7 {
        fill: #e4e4e5;
      }

      .cls-8 {
        fill: #dfe0e1;
      }

      .cls-9 {
        fill: #8a8a8a;
      }

      .cls-10 {
        fill: #e6e7e7;
      }

      .cls-11 {
        fill: #e7e8e8;
      }

      .cls-12 {
        fill: #e0e1e2;
      }

      .cls-13 {
        fill: #dbdbdb;
      }

      .cls-14 {
        fill: #ebebeb;
      }

      .cls-15 {
        fill: #ececec;
      }

      .cls-16 {
        fill: #ededed;
      }

      .cls-17 {
        fill: #eaeaea;
      }

      .cls-18 {
        fill: #e8e9e9;
      }

      .cls-19 {
        fill: #cfcfcf;
      }

      .cls-20 {
        fill: url(#linear-gradient);
      }

      .cls-21 {
        fill: #bfbfbf;
      }

      .cls-22 {
        fill: #e1e2e3;
      }
    </style>
    <linearGradient id="linear-gradient" x1="69.2" y1="2.66" x2="69.2" y2="100.29" gradientUnits="userSpaceOnUse">
      <stop offset="0" stop-color="#cfcfcf"/>
      <stop offset="1" stop-color="#a6a6a6"/>
    </linearGradient>
    <linearGradient id="linear-gradient-2" x1="69.4" y1="51.19" x2="134.21" y2="51.19" gradientUnits="userSpaceOnUse">
      <stop offset="0" stop-color="#a1a1a1"/>
      <stop offset=".02" stop-color="#dadada"/>
      <stop offset=".09" stop-color="#e4e4e4"/>
      <stop offset=".22" stop-color="#f0f0f0"/>
      <stop offset=".35" stop-color="#f4f4f4"/>
      <stop offset="1" stop-color="#f0f0f0"/>
    </linearGradient>
    <linearGradient id="linear-gradient-3" x1="8555.75" y1="50.58" x2="8620.55" y2="50.58" gradientTransform="translate(8625.15) rotate(-180) scale(1 -1)" gradientUnits="userSpaceOnUse">
      <stop offset="0" stop-color="#b3b3b3"/>
      <stop offset=".09" stop-color="#dadada"/>
      <stop offset=".2" stop-color="#dbdbdb"/>
      <stop offset=".27" stop-color="#e4e4e4"/>
      <stop offset=".4" stop-color="#f0f0f0"/>
      <stop offset=".53" stop-color="#f4f4f4"/>
      <stop offset="1" stop-color="#f0f0f0"/>
    </linearGradient>
  </defs>
  <g id="_图层_1-2" data-name="图层 1">
    <g>
      <path class="cls-20" d="M138.39,98.37c0,.67-.55,1.21-1.23,1.21H1.22c-.68,0-1.22-.54-1.22-1.21V4c0-.67.55-1.21,1.22-1.21h135.94c.68,0,1.23.54,1.23,1.21v94.37Z"/>
      <path class="cls-9" d="M2.09,97.51l-1.75,1.69c.22.23.54.38.89.38h132.68l2.43-2.08H2.09Z"/>
      <rect class="cls-1" x="2.09" y="5.47" width="6.66" height="92.04"/>
      <rect class="cls-1" x="129.67" y="5.47" width="6.66" height="92.04"/>
      <path class="cls-3" d="M134.21,97.51s-30.38,2.43-45.72,2.43-19.09-1.22-19.09-1.22V3.65s4.66-1.22,19.24-1.22,45.57,3.04,45.57,3.04v92.04Z"/>
      <path class="cls-6" d="M4.6,97.51s30.38,3.65,45.72,3.65,19.09-2.43,19.09-2.43V3.65s-4.66-3.65-19.24-3.65S4.6,5.47,4.6,5.47v92.04Z"/>
      <rect class="cls-13" x="4.52" y="5.47" width=".15" height="92.04"/>
      <rect class="cls-8" x="4.33" y="5.47" width=".15" height="92.04"/>
      <rect class="cls-12" x="4.15" y="5.47" width=".15" height="92.04"/>
      <rect class="cls-22" x="3.96" y="5.47" width=".15" height="92.04"/>
      <rect class="cls-4" x="3.77" y="5.47" width=".15" height="92.04"/>
      <rect class="cls-21" x="3.16" y="5.47" width=".15" height="92.04"/>
      <rect class="cls-7" x="4.19" y="5.47" width=".15" height="92.04"/>
      <rect class="cls-2" x="3.4" y="5.47" width=".15" height="92.04"/>
      <rect class="cls-11" x="2.42" y="5.47" width=".15" height="92.04"/>
      <rect class="cls-18" x="2.84" y="5.47" width=".15" height="92.04"/>
      <rect class="cls-17" x="2.65" y="5.47" width=".15" height="92.04"/>
      <rect class="cls-14" x="2.46" y="5.47" width=".15" height="92.04"/>
      <rect class="cls-16" x="2.09" y="5.47" width=".15" height="92.04"/>
      <rect class="cls-13" x="136.18" y="5.47" width=".13" height="92.04"/>
      <rect class="cls-8" x="136.02" y="5.47" width=".13" height="92.04"/>
      <rect class="cls-12" x="135.86" y="5.47" width=".13" height="92.04"/>
      <rect class="cls-4" x="135.54" y="5.47" width=".13" height="92.04"/>
      <rect class="cls-7" x="135.38" y="5.47" width=".13" height="92.04"/>
      <rect class="cls-10" x="135.06" y="5.47" width=".13" height="92.04"/>
      <rect class="cls-11" x="134.9" y="5.47" width=".13" height="92.04"/>
      <rect class="cls-19" x="134.74" y="5.47" width=".13" height="92.04"/>
      <rect class="cls-17" x="134.58" y="5.47" width=".13" height="92.04"/>
      <rect class="cls-14" x="134.42" y="5.47" width=".13" height="92.04"/>
      <rect class="cls-15" x="134.26" y="5.47" width=".13" height="92.04"/>
      <rect class="cls-16" x="134.1" y="5.47" width=".13" height="92.04"/>
      <path class="cls-5" d="M66.06,99.84c.86-.2,1.53-.39,2.02-.56V2.9c-.51-.24-1.18-.52-2.02-.81v97.75Z"/>
    </g>
  </g>
</svg>