<?xml version="1.0" encoding="UTF-8"?>
<svg id="_图层_2" xmlns="http://www.w3.org/2000/svg" version="1.1" viewBox="0 0 17.3 72.5">
  <!-- Generator: Adobe Illustrator 30.3.0, SVG Export Plug-In . SVG Version: 2.1.3 Build 182)  -->
  <defs>
    <style>
      .st0 {
        fill: #1c2b48;
      }

      .st1 {
        fill: #fff;
      }

      .st2 {
        isolation: isolate;
      }

      .st3 {
        fill: #d2dbec;
      }
    </style>
  </defs>
  <g id="_图层_1-2">
    <g>
      <rect class="st0" width="17.3" height="72.5"/>
      <g class="st2">
        <g class="st2">
          <path class="st1" d="M6.7,21c-1.7,0-2.3-2-2.3-3.6v-3.4h0c.1.2.3.3.7.3h7c.4,0,.6,0,.7-.3h0v2.9c0,1.6-.3,3.6-2.1,3.6s-1.8-1.2-2-2.5c-.1,1.5-.8,3-2.3,3ZM6.7,20c1.1,0,2.2-.7,2.2-2.7v-2.1h-4.5v2.1c0,2,1.1,2.7,2.2,2.7ZM9,15.2v1.6c0,2,.9,2.7,1.9,2.7s2-.6,2-2.7v-1.6h-3.9Z"/>
          <path class="st1" d="M8.7,31.6c-2.4,0-4.4-2-4.4-4.5s2-4.5,4.4-4.5,4.4,2,4.4,4.5-2,4.5-4.4,4.5ZM9.7,30.4c2.2-.7,3.7-2.5,3.1-4.5s-2.9-2.7-5.1-2c-2.2.7-3.7,2.5-3.1,4.5.6,2.1,2.9,2.7,5.1,2Z"/>
          <path class="st1" d="M8.7,42.1c-2.4,0-4.4-2-4.4-4.5s2-4.5,4.4-4.5,4.4,2,4.4,4.5-2,4.5-4.4,4.5ZM9.7,40.9c2.2-.7,3.7-2.5,3.1-4.5s-2.9-2.7-5.1-2c-2.2.7-3.7,2.5-3.1,4.5.6,2.1,2.9,2.7,5.1,2Z"/>
          <path class="st1" d="M4.4,50.7v-2h0c.3.3.8,0,1.6-.4l3.4-1.9-1.4-1.4h-2.8c-.4,0-.6,0-.7.3h0v-1.5h0c.1.2.3.3.7.3h7c.4,0,.6,0,.7-.3h0v1.5h0c-.1-.2-.3-.3-.7-.3h-4l2.7,2.6c1.2,1.1,1.7,1.4,2.1.9h0v1.6h0c-.3-.6-1-1.3-2.1-2.4l-.7-.7-3.6,2.1c-1.2.7-1.6,1.1-2,1.6h0Z"/>
        </g>
      </g>
      <rect class="st3" y="3.2" width="17.3" height="1.7"/>
      <rect class="st3" y="67.3" width="17.3" height="1.7"/>
    </g>
  </g>
</svg>